<svg width="144" height="144" viewBox="0 0 144 144" fill="none" xmlns="http://www.w3.org/2000/svg">
<path fill-rule="evenodd" clip-rule="evenodd" d="M72 144C111.765 144 144 111.765 144 72C144 32.2355 111.765 0 72 0C32.2355 0 0 32.2355 0 72C0 111.765 32.2355 144 72 144ZM77.6803 37.7705C77.6803 35.2852 75.6655 33.2705 73.1803 33.2705C70.695 33.2705 68.6803 35.2852 68.6803 37.7705V68.6802H37.77C35.2847 68.6802 33.27 70.695 33.27 73.1802C33.27 75.6655 35.2847 77.6802 37.77 77.6802H68.6803V108.59C68.6803 111.075 70.695 113.09 73.1803 113.09C75.6655 113.09 77.6803 111.075 77.6803 108.59V77.6802H108.59C111.075 77.6802 113.09 75.6655 113.09 73.1802C113.09 70.6949 111.075 68.6802 108.59 68.6802H77.6803V37.7705Z" fill="#C5C5C5"/>
</svg>
