<svg width="85" height="85" viewBox="0 0 85 85" fill="none" xmlns="http://www.w3.org/2000/svg">
<path d="M30.874 1.62108C34.7003 0.532866 38.6605 -0.0127432 42.6385 0.000225862L42.5 42.5L30.874 1.62108Z" fill="#112B4A"/>
<path d="M3.3698 25.9146C5.84804 20.0676 9.60506 14.8504 14.3647 10.6463C19.1244 6.44229 24.7658 3.35828 30.874 1.62108L42.5 42.5L3.3698 25.9146Z" fill="#1A4270"/>
<path d="M7.13583 66.0717C3.23687 60.2221 0.849811 53.4968 0.188487 46.4981C-0.472836 39.4994 0.612232 32.446 3.34649 25.9697L42.5 42.5L7.13583 66.0717Z" fill="#255D9D"/>
<path d="M60.9898 80.7671C51.7549 85.2292 41.2179 86.2012 31.3226 83.5038C21.4272 80.8064 12.8412 74.6216 7.1482 66.0902L42.5 42.5L60.9898 80.7671Z" fill="#3178CA"/>
<path d="M42.5 5.05046e-09C52.1216 1.19787e-07 61.4585 3.26482 68.9837 9.26051C76.5088 15.2562 81.7768 23.6279 83.9261 33.0064C86.0753 42.3849 84.9787 52.2152 80.8154 60.8895C76.6522 69.5638 69.6688 76.5687 61.0074 80.7586L42.5 42.5V5.05046e-09Z" fill="#3C93F9"/>
</svg>
